HIERARCHY
ROOT hip
{
	OFFSET 0.000000 0.000000 0.000000 
	CHANNELS 6 Xposition Yposition Zposition Xrotation Zrotation Yrotation
	JOINT abdomen
	{
		OFFSET 0.000000 3.402643 0.000000 
		CHANNELS 3 Xrotation Zrotation Yrotation
		JOINT chest
		{
			OFFSET 0.000000 8.438565 -0.680529 
			CHANNELS 3 Xrotation Zrotation Yrotation
			JOINT neck
			{
				OFFSET 0.000000 10.207942 -0.272212 
				CHANNELS 3 Xrotation Zrotation Yrotation
				JOINT head
				{
					OFFSET 0.000000 3.130431 0.000000 
					CHANNELS 3 Xrotation Zrotation Yrotation
					End Site
					{
						OFFSET 0.000000 3.130435 0.000000 
					}
				}
			}
			JOINT lCollar
			{
				OFFSET 3.470700 6.669187 -0.816635 
				CHANNELS 3 Yrotation Zrotation Xrotation
				JOINT lShldr
				{
					OFFSET 3.198488 0.000000 0.000000 
					CHANNELS 3 Zrotation Yrotation Xrotation
					JOINT lForeArm
					{
						OFFSET 10.139888 0.000000 0.000000 
						CHANNELS 3 Yrotation Zrotation Xrotation
						JOINT lHand
						{
							OFFSET 8.370511 0.000000 0.000000 
							CHANNELS 3 Zrotation Yrotation Xrotation
							End Site
							{
								OFFSET 4.083176 0.000000 0.000000 
							}
						}
					}
				}
			}
			JOINT rCollar
			{
				OFFSET -3.470700 6.669187 -0.816635 
				CHANNELS 3 Yrotation Zrotation Xrotation
				JOINT rShldr
				{
					OFFSET -3.198488 0.000000 0.000000 
					CHANNELS 3 Zrotation Yrotation Xrotation
					JOINT rForeArm
					{
						OFFSET -10.139888 0.000000 0.000000 
						CHANNELS 3 Yrotation Zrotation Xrotation
						JOINT rHand
						{
							OFFSET -8.370511 0.000000 0.000000 
							CHANNELS 3 Zrotation Yrotation Xrotation
							End Site
							{
								OFFSET -4.083176 0.000000 0.000000 
							}
						}
					}
				}
			}
		}
	}
	JOINT lThigh
	{
		OFFSET 5.308129 -1.633274 1.361059 
		CHANNELS 3 Xrotation Zrotation Yrotation
		JOINT lShin
		{
			OFFSET -2.041588 -20.007561 0.000000 
			CHANNELS 3 Xrotation Zrotation Yrotation
			JOINT lFoot
			{
				OFFSET 0.000000 -19.190928 -1.224953 
				CHANNELS 3 Xrotation Yrotation Zrotation
				End Site
				{
					OFFSET 0.000000 -2.449906 4.627600 
				}
			}
		}
	}
	JOINT rThigh
	{
		OFFSET -5.308129 -1.633274 1.361059 
		CHANNELS 3 Xrotation Zrotation Yrotation
		JOINT rShin
		{
			OFFSET 2.041588 -20.007561 0.000000 
			CHANNELS 3 Xrotation Zrotation Yrotation
			JOINT rFoot
			{
				OFFSET 0.000000 -19.190928 -1.224953 
				CHANNELS 3 Xrotation Yrotation Zrotation
				End Site
				{
					OFFSET 0.000000 -2.449906 4.627600 
				}
			}
		}
	}
}
MOTION
Frames: 13
Frame Time: 0.016667
9.059588 37.094650 104.297707 -6.435491 -16.114105 104.710365 12.149981 2.453616 2.667096 -4.913157 6.363444 -0.965677 -12.645178 -3.278018 0.873940 10.500874 20.989475 -10.631565 2.239031 1.334920 0.039219 -29.145424 -34.904655 110.296974 42.845695 -2.058527 2.655054 1.643533 -3.398415 144.852524 -3.938843 -2.982474 0.045583 75.036507 26.215309 152.558167 -30.548943 1.866165 2.542907 -1.653298 3.397818 -147.862320 -51.420837 13.748694 2.818232 67.722244 -0.005328 0.010790 -9.702553 -10.442542 -1.793441 -45.349663 -11.931959 -32.989738 74.789536 -0.009826 0.004606 -20.143597 12.050274 4.383220 
9.795244 37.419556 105.337265 -6.546566 -16.693464 101.847954 11.862923 2.016575 3.382566 -5.261895 5.854304 -0.527627 -12.645178 -3.278018 0.873940 10.669347 22.241373 -11.421097 2.239031 1.334920 0.039219 -33.744686 -33.650810 114.589401 52.389359 -2.188763 2.768600 1.644130 -3.408162 135.614243 -3.938843 -2.982474 0.045583 76.420731 22.255173 151.387100 -32.189709 1.893159 2.555403 -1.653298 3.397818 -152.237320 -51.322056 12.166478 2.010738 67.008606 -0.005128 0.011065 -10.099518 -10.568206 -1.895586 -44.390701 -11.655878 -33.404617 74.066582 -0.009918 -0.009226 -17.321892 12.881972 3.990008 
10.590911 37.652161 106.421394 -6.365422 -16.767113 98.344872 11.732445 1.472500 4.094985 -5.426275 5.590230 -0.158449 -12.645178 -3.278018 0.873940 10.624059 21.137640 -12.195794 2.239031 1.334920 0.039219 -38.292164 -32.428455 116.880287 63.028275 -2.309472 2.918958 1.644130 -3.408162 132.596664 -3.938843 -2.982474 0.045583 78.467079 19.100830 150.148712 -33.098007 1.907945 2.562650 -1.653298 3.397818 -154.971710 -50.124165 11.444575 1.574755 66.011314 -0.005749 0.006388 -10.652775 -10.076589 -1.893018 -42.888241 -10.866733 -31.930994 71.866959 -0.010006 -0.011318 -16.807320 0.815856 0.256353 
11.361016 37.674385 107.416893 -6.136389 -17.250290 96.326988 11.486199 1.014429 4.307824 -5.370095 4.754528 0.140254 -12.645178 -3.278018 0.873940 10.868029 21.648499 -12.863976 2.239031 1.334920 0.039219 -42.257759 -33.196148 120.556229 70.580727 -2.377291 3.037688 1.644130 -3.408162 136.659164 -3.938843 -2.982474 0.045583 80.543884 15.817065 147.473770 -33.693771 1.917580 2.567531 -1.653298 3.397818 -155.909210 -49.687515 10.066108 0.981701 65.307053 -0.005621 -0.004305 -10.865221 -10.964347 -2.105438 -41.724388 -11.080125 -28.619085 69.559196 -0.009741 0.003273 -15.660374 -7.919277 -2.218693 
12.161904 37.533821 108.516930 -6.559758 -17.071836 94.118912 11.348789 0.804275 4.712319 -5.394990 4.141792 0.449356 -12.645178 -3.278018 0.873940 11.272221 22.121761 -13.220490 2.239031 1.334920 0.039219 -44.998104 -33.983631 123.410629 77.527824 -2.425392 3.153893 1.643533 -3.398415 135.497040 -3.938843 -2.982474 0.045583 82.038467 12.022315 146.369751 -34.816956 1.935604 2.577004 -1.653298 3.397818 -158.936554 -48.304813 10.731203 1.112022 65.522049 -0.004884 -0.005617 -12.128877 -10.541832 -2.265445 -39.822941 -11.141828 -25.218981 67.623566 -0.009804 0.003117 -16.165926 -10.795693 -3.104097 
12.957992 37.292534 109.584755 -7.039047 -16.492952 91.878494 11.143308 0.651544 5.089376 -5.419740 3.402725 0.752146 -12.645178 -3.278018 0.873940 11.671896 22.223032 -13.315243 2.239031 1.334920 0.039219 -47.145515 -34.909435 126.848419 84.602242 -2.459555 3.277722 1.644130 -3.408162 135.916977 -3.938843 -2.982474 0.045583 83.045074 8.314458 145.714706 -35.539703 1.947103 2.583285 -1.663659 3.406970 -161.407822 -45.868748 12.343788 1.141182 66.226303 -0.018751 -0.003630 -15.646302 -3.611661 -1.032648 -37.844505 -11.439806 -21.606827 65.854111 -0.009819 0.004542 -15.695826 -12.896443 -3.591428 
13.791238 36.979855 110.687431 -7.696460 -15.578242 90.037201 11.095289 0.948729 5.254539 -5.282307 3.315968 0.817154 -12.645178 -3.278018 0.873940 12.030371 22.254751 -13.104399 2.239031 1.334920 0.039219 -49.107533 -35.200069 130.813416 91.813667 -2.478459 3.406865 1.644130 -3.408162 140.497040 -3.938843 -2.982474 0.045583 83.681610 5.017838 146.181702 -36.819180 1.967261 2.594759 -1.663062 3.397222 -163.419540 -42.644623 14.657640 -0.038213 66.109245 -0.005872 0.010732 -19.268497 -1.069425 -0.381998 -35.857967 -11.961877 -18.233053 64.377663 -0.018681 0.008172 -15.102060 -12.990760 -3.475065 
14.645391 36.592754 111.774841 -8.090975 -14.760511 87.922646 11.165388 1.379643 5.116189 -4.932604 3.775071 0.660829 -12.645178 -3.278018 0.873940 12.494962 22.159067 -12.575192 2.239031 1.334920 0.039219 -50.899952 -34.672249 135.551895 99.709671 -2.477965 3.569486 1.644130 -3.408162 147.147430 -3.938843 -2.982474 0.045583 84.435440 3.501953 144.962463 -37.180565 1.972908 2.598080 -1.663659 3.406970 -161.534775 -38.970367 17.781404 -1.139527 65.014008 -0.005642 0.001564 -21.890144 -2.052874 -0.829087 -34.735516 -13.007485 -15.112495 63.743156 -0.009911 -0.010031 -14.033041 -12.873245 -3.192016 
15.513350 36.201969 112.869484 -7.119073 -14.074733 85.155312 11.261296 0.938609 4.796394 -4.894701 3.989352 0.566994 -12.645178 -3.278018 0.873940 12.716782 21.934935 -12.276194 2.239031 1.334920 0.039219 -52.056408 -34.331432 142.294540 106.862473 -2.461551 3.697741 1.643533 -3.398415 154.579086 -3.938843 -2.982474 0.045583 85.568176 0.768563 144.710846 -39.446571 2.007824 2.619712 -1.663659 3.406970 -162.189072 -34.381752 19.783602 -0.586974 63.166080 -0.004332 -0.007098 -24.580107 -2.111122 -0.975877 -35.280972 -15.242653 -11.250326 64.592651 -0.018640 0.009790 -14.540662 -12.525159 -3.235959 
16.422073 35.917427 114.029350 -5.197066 -13.238304 82.081512 11.006934 0.795638 4.178310 -4.969769 4.952109 0.185920 -12.645178 -3.278018 0.873940 13.053620 21.856970 -11.742621 2.239031 1.334920 0.039219 -53.851028 -33.345856 149.916367 113.233398 -2.433570 3.809897 1.643533 -3.398415 162.713852 -3.938843 -2.982474 0.045583 85.956039 -1.375089 146.003647 -41.321930 2.036056 2.638647 -1.663062 3.397222 -162.892197 -29.359026 20.913410 2.126272 60.996532 -0.013598 0.002369 -25.497742 -4.130385 -1.970767 -37.513603 -18.365330 -8.296973 66.743721 -0.009791 0.003864 -14.447099 -13.358268 -3.409745 
17.373791 35.757011 115.213287 -3.143581 -12.715837 78.376221 10.673956 0.278303 3.568126 -4.953281 5.351151 -0.072263 -12.645178 -3.278018 0.873940 13.379574 21.778353 -10.975513 2.239031 1.334920 0.039219 -55.194775 -31.911522 158.788300 118.245941 -2.402933 3.895216 -178.355865 -176.591843 -7.071309 -3.938843 -2.982474 0.045583 86.356964 -2.746951 147.277847 -42.132648 2.048065 2.647116 -1.663062 3.397222 -163.282837 -24.050991 21.306730 6.502878 58.356773 -0.003330 -0.004462 -25.702795 -0.127696 -0.073462 -41.414120 -20.389704 -5.530793 69.021545 -0.009769 0.002443 -14.065392 -14.106686 -3.494613 
18.391781 35.840633 116.427315 -1.937402 -12.073377 74.808884 10.507824 0.086417 2.984793 -4.946912 5.759860 -0.399485 -12.645178 -3.278018 0.873940 13.536048 21.455660 -10.160922 2.239031 1.334920 0.039219 -57.308239 -29.662590 168.206863 121.274887 -2.380844 3.945361 -178.356476 -176.601593 4.266582 -3.938843 -2.982474 0.045583 86.701172 -3.042439 148.231430 -42.230324 2.049504 2.648147 -1.663062 3.397222 -162.521118 -18.297581 21.801537 9.318762 55.003609 0.005443 -0.011066 -24.443338 -0.027394 -0.029161 -44.770596 -20.700741 -4.426669 70.449142 -0.000229 0.001873 -14.281893 -13.291417 -3.362170 
19.438564 36.014462 117.702240 -1.027852 -11.873144 71.656303 10.391328 -0.662778 2.944766 -4.381983 6.300039 1.892028 -12.645178 -3.278018 0.873940 13.816943 21.034639 -9.190519 2.239031 1.334920 0.039219 119.982491 -153.142532 -2.649804 121.118553 -2.382049 3.942801 1.653298 -3.397819 -167.560165 -3.938843 -2.982474 0.045583 86.961555 -2.396038 149.706497 -41.654030 2.040990 2.642096 -1.663659 3.406970 -161.612900 -12.966665 21.859758 10.448711 51.075062 -0.011431 0.001475 -22.126877 0.302765 0.131538 -48.071342 -20.124811 -5.156389 70.947395 -0.009970 0.004030 -13.991683 -11.750671 -2.907682 
